<svg width="8" height="11" viewBox="0 0 8 11" fill="none" xmlns="http://www.w3.org/2000/svg">
<path d="M3.99999 0C1.79385 0 1.4173e-07 1.79386 0 3.99999C-9.44866e-08 5.60414 0.971452 7.31417 1.92203 8.64497C2.8726 9.97578 3.82376 10.9269 3.82376 10.9269C3.87064 10.9737 3.93419 11 4.00046 11C4.06672 11 4.13028 10.9737 4.17716 10.9269C4.17716 10.9269 5.12831 9.97578 6.07888 8.64497C7.02946 7.31417 7.99999 5.60414 7.99999 3.99999C7.99999 1.79386 6.20614 0 3.99999 0ZM3.99999 0.500115C5.93592 0.500115 7.49988 2.06407 7.49988 3.99999C7.49988 5.39581 6.59636 7.06016 5.67197 8.35431C4.83587 9.52485 4.15202 10.2061 3.99999 10.3612C3.84769 10.2058 3.16485 9.52458 2.32895 8.35431C1.40455 7.06016 0.500115 5.39581 0.500115 3.99999C0.500115 2.06407 2.06407 0.500115 3.99999 0.500115Z" fill="#A68E52"/>
</svg>
