<svg width="23" height="21" viewBox="0 0 23 21" fill="none" xmlns="http://www.w3.org/2000/svg">
<path d="M22.1347 6.81068L19.5524 5.11558L19.4786 0.393506C19.4786 0.172159 19.3064 0 19.0851 0H3.07428C2.85294 0 2.68078 0.172159 2.68078 0.393506V4.99261L6.63353e-05 6.81068C6.63353e-05 6.81068 0 6.81068 1.66219e-05 7.00933V20.6591C1.66219e-05 20.6345 1.66219e-05 20.6837 1.66219e-05 20.6591H0.368929C0.368929 20.6591 0.368929 20.6591 0.393523 20.6591H21.7412H22.1347C22.1347 20.6591 22.1347 20.3148 22.1347 20.2902V7.00933C22.1347 6.88636 22.1347 6.98095 22.1347 6.81068ZM19.4786 6.00097L21.1018 7.00933L19.4786 8.26363V6.00097ZM3.46779 4.94342V0.787012H18.667V4.94342V8.73092L11.0674 14.5843L3.46779 8.73092V4.94342ZM2.65618 6.00097V8.26363L2.18889 7.89472L1.03297 7.00933L2.65618 6.00097ZM0.787029 7.82093L2.80375 9.39496L8.36202 13.6251L0.787029 19.454V7.82093ZM1.54945 19.8721L9.00147 14.1416L11.0674 15.7894L13.1333 14.1416L20.5607 19.8721H1.54945ZM21.3477 19.454L18.1013 16.9454L13.7727 13.6251L21.0034 8.04228L21.3231 7.79634V19.454H21.3477Z" fill="#A68E52"/>
</svg>
